<mxfile host="app.diagrams.net" modified="2024-07-17T14:44:35.372Z" agent="Mozilla/5.0 (Windows NT 10.0; Win64; x64) AppleWebKit/537.36 (KHTML, like Gecko) Chrome/126.0.0.0 Safari/537.36" etag="UmcK0suaNoh1uVf_73Ma" version="24.6.5" type="device">
  <diagram name="StrÃ¡nka-1" id="NyzYiisp-KYC-y9Bl3jh">
    <mxGraphModel dx="488" dy="452" grid="1" gridSize="10" guides="1" tooltips="1" connect="1" arrows="1" fold="1" page="1" pageScale="1" pageWidth="827" pageHeight="1169" math="0" shadow="0">
      <root>
        <mxCell id="0" />
        <mxCell id="1" parent="0" />
        <mxCell id="8ZRl1OF-vCPLjR-fAQ_5-33" value="" style="rounded=0;whiteSpace=wrap;html=1;" vertex="1" parent="1">
          <mxGeometry y="250" width="810" height="790" as="geometry" />
        </mxCell>
        <mxCell id="8ZRl1OF-vCPLjR-fAQ_5-30" value="" style="rounded=0;whiteSpace=wrap;html=1;" vertex="1" parent="1">
          <mxGeometry x="485" y="284" width="306" height="180" as="geometry" />
        </mxCell>
        <mxCell id="8ZRl1OF-vCPLjR-fAQ_5-14" value="" style="rounded=0;whiteSpace=wrap;html=1;" vertex="1" parent="1">
          <mxGeometry x="230" y="504" width="520" height="520" as="geometry" />
        </mxCell>
        <mxCell id="8ZRl1OF-vCPLjR-fAQ_5-1" value="Client" style="rounded=1;whiteSpace=wrap;html=1;" vertex="1" parent="1">
          <mxGeometry x="20" y="664" width="120" height="60" as="geometry" />
        </mxCell>
        <mxCell id="8ZRl1OF-vCPLjR-fAQ_5-10" value="" style="rounded=1;whiteSpace=wrap;html=1;" vertex="1" parent="1">
          <mxGeometry x="475" y="574" width="250" height="240" as="geometry" />
        </mxCell>
        <mxCell id="8ZRl1OF-vCPLjR-fAQ_5-11" value="&lt;b&gt;&lt;font style=&quot;font-size: 18px;&quot;&gt;School server&lt;/font&gt;&lt;/b&gt;" style="text;html=1;align=center;verticalAlign=middle;resizable=0;points=[];autosize=1;strokeColor=none;fillColor=none;" vertex="1" parent="1">
          <mxGeometry x="230" y="474" width="140" height="40" as="geometry" />
        </mxCell>
        <mxCell id="8ZRl1OF-vCPLjR-fAQ_5-19" style="edgeStyle=orthogonalEdgeStyle;rounded=0;orthogonalLoop=1;jettySize=auto;html=1;exitX=1;exitY=0.5;exitDx=0;exitDy=0;entryX=0;entryY=0.5;entryDx=0;entryDy=0;" edge="1" parent="1" source="8ZRl1OF-vCPLjR-fAQ_5-13" target="8ZRl1OF-vCPLjR-fAQ_5-16">
          <mxGeometry relative="1" as="geometry" />
        </mxCell>
        <mxCell id="8ZRl1OF-vCPLjR-fAQ_5-13" value="" style="rounded=1;whiteSpace=wrap;html=1;" vertex="1" parent="1">
          <mxGeometry x="490" y="674" width="90" height="120" as="geometry" />
        </mxCell>
        <mxCell id="8ZRl1OF-vCPLjR-fAQ_5-21" style="edgeStyle=orthogonalEdgeStyle;rounded=0;orthogonalLoop=1;jettySize=auto;html=1;exitX=1;exitY=0.5;exitDx=0;exitDy=0;entryX=0;entryY=0.5;entryDx=0;entryDy=0;" edge="1" parent="1" source="8ZRl1OF-vCPLjR-fAQ_5-2" target="8ZRl1OF-vCPLjR-fAQ_5-10">
          <mxGeometry relative="1" as="geometry" />
        </mxCell>
        <mxCell id="8ZRl1OF-vCPLjR-fAQ_5-34" style="edgeStyle=orthogonalEdgeStyle;rounded=0;orthogonalLoop=1;jettySize=auto;html=1;exitX=0;exitY=0.75;exitDx=0;exitDy=0;entryX=1;entryY=0.75;entryDx=0;entryDy=0;" edge="1" parent="1" source="8ZRl1OF-vCPLjR-fAQ_5-2" target="8ZRl1OF-vCPLjR-fAQ_5-1">
          <mxGeometry relative="1" as="geometry" />
        </mxCell>
        <mxCell id="8ZRl1OF-vCPLjR-fAQ_5-2" value="&lt;span style=&quot;color: rgb(32, 33, 36); font-family: &amp;quot;Google Sans&amp;quot;, Arial, sans-serif-medium, sans-serif; text-align: left; background-color: rgb(255, 255, 255);&quot;&gt;&lt;font style=&quot;font-size: 15px;&quot;&gt;Apache HTTP Server&lt;/font&gt;&lt;/span&gt;" style="rounded=1;whiteSpace=wrap;html=1;" vertex="1" parent="1">
          <mxGeometry x="260" y="664" width="120" height="60" as="geometry" />
        </mxCell>
        <mxCell id="8ZRl1OF-vCPLjR-fAQ_5-3" style="rounded=0;orthogonalLoop=1;jettySize=auto;html=1;exitX=1;exitY=0.5;exitDx=0;exitDy=0;entryX=0;entryY=0.5;entryDx=0;entryDy=0;" edge="1" parent="1" source="8ZRl1OF-vCPLjR-fAQ_5-1" target="8ZRl1OF-vCPLjR-fAQ_5-2">
          <mxGeometry relative="1" as="geometry" />
        </mxCell>
        <mxCell id="8ZRl1OF-vCPLjR-fAQ_5-6" value="request" style="edgeLabel;html=1;align=center;verticalAlign=middle;resizable=0;points=[];" vertex="1" connectable="0" parent="8ZRl1OF-vCPLjR-fAQ_5-3">
          <mxGeometry x="-0.3212" y="1" relative="1" as="geometry">
            <mxPoint x="15" y="-8" as="offset" />
          </mxGeometry>
        </mxCell>
        <mxCell id="8ZRl1OF-vCPLjR-fAQ_5-15" value="&lt;b&gt;&lt;font style=&quot;font-size: 15px;&quot;&gt;Docker Code Tester compose&lt;/font&gt;&lt;/b&gt;" style="text;html=1;align=center;verticalAlign=middle;resizable=0;points=[];autosize=1;strokeColor=none;fillColor=none;" vertex="1" parent="1">
          <mxGeometry x="485" y="584" width="230" height="30" as="geometry" />
        </mxCell>
        <mxCell id="8ZRl1OF-vCPLjR-fAQ_5-20" style="edgeStyle=orthogonalEdgeStyle;rounded=0;orthogonalLoop=1;jettySize=auto;html=1;exitX=0;exitY=0.75;exitDx=0;exitDy=0;entryX=1;entryY=0.75;entryDx=0;entryDy=0;" edge="1" parent="1" source="8ZRl1OF-vCPLjR-fAQ_5-16" target="8ZRl1OF-vCPLjR-fAQ_5-13">
          <mxGeometry relative="1" as="geometry" />
        </mxCell>
        <mxCell id="8ZRl1OF-vCPLjR-fAQ_5-16" value="" style="rounded=1;whiteSpace=wrap;html=1;" vertex="1" parent="1">
          <mxGeometry x="620" y="674" width="90" height="120" as="geometry" />
        </mxCell>
        <mxCell id="8ZRl1OF-vCPLjR-fAQ_5-17" value="&lt;b style=&quot;&quot;&gt;&lt;font style=&quot;font-size: 13px;&quot;&gt;Code Tester&lt;/font&gt;&lt;/b&gt;&lt;div&gt;&lt;b style=&quot;&quot;&gt;&lt;font style=&quot;font-size: 13px;&quot;&gt;&amp;nbsp;App&lt;/font&gt;&lt;/b&gt;&lt;/div&gt;" style="text;html=1;align=center;verticalAlign=middle;resizable=0;points=[];autosize=1;strokeColor=none;fillColor=none;" vertex="1" parent="1">
          <mxGeometry x="484" y="705" width="100" height="40" as="geometry" />
        </mxCell>
        <mxCell id="8ZRl1OF-vCPLjR-fAQ_5-18" value="&lt;b style=&quot;&quot;&gt;&lt;font style=&quot;font-size: 13px;&quot;&gt;Redis&lt;/font&gt;&lt;/b&gt;" style="text;html=1;align=center;verticalAlign=middle;resizable=0;points=[];autosize=1;strokeColor=none;fillColor=none;" vertex="1" parent="1">
          <mxGeometry x="635" y="704" width="60" height="30" as="geometry" />
        </mxCell>
        <mxCell id="8ZRl1OF-vCPLjR-fAQ_5-22" value="&lt;b&gt;&lt;font style=&quot;font-size: 13px;&quot;&gt;MariaDB&lt;/font&gt;&lt;/b&gt;" style="rounded=1;whiteSpace=wrap;html=1;" vertex="1" parent="1">
          <mxGeometry x="555" y="879" width="90" height="120" as="geometry" />
        </mxCell>
        <mxCell id="8ZRl1OF-vCPLjR-fAQ_5-24" style="edgeStyle=orthogonalEdgeStyle;rounded=0;orthogonalLoop=1;jettySize=auto;html=1;exitX=0.75;exitY=0;exitDx=0;exitDy=0;entryX=0.593;entryY=1.008;entryDx=0;entryDy=0;entryPerimeter=0;" edge="1" parent="1" source="8ZRl1OF-vCPLjR-fAQ_5-22" target="8ZRl1OF-vCPLjR-fAQ_5-10">
          <mxGeometry relative="1" as="geometry" />
        </mxCell>
        <mxCell id="8ZRl1OF-vCPLjR-fAQ_5-25" value="" style="endArrow=classic;html=1;rounded=0;entryX=1.003;entryY=0.687;entryDx=0;entryDy=0;entryPerimeter=0;exitX=0.001;exitY=0.548;exitDx=0;exitDy=0;exitPerimeter=0;" edge="1" parent="1" source="8ZRl1OF-vCPLjR-fAQ_5-10" target="8ZRl1OF-vCPLjR-fAQ_5-2">
          <mxGeometry width="50" height="50" relative="1" as="geometry">
            <mxPoint x="360" y="774" as="sourcePoint" />
            <mxPoint x="410" y="724" as="targetPoint" />
          </mxGeometry>
        </mxCell>
        <mxCell id="8ZRl1OF-vCPLjR-fAQ_5-26" value="&lt;font style=&quot;font-size: 13px;&quot;&gt;&lt;b&gt;Microsoft Azure OAuth2&lt;/b&gt;&lt;/font&gt;" style="rounded=1;whiteSpace=wrap;html=1;" vertex="1" parent="1">
          <mxGeometry x="580" y="324" width="90" height="120" as="geometry" />
        </mxCell>
        <mxCell id="8ZRl1OF-vCPLjR-fAQ_5-27" style="edgeStyle=orthogonalEdgeStyle;rounded=0;orthogonalLoop=1;jettySize=auto;html=1;exitX=0.75;exitY=1;exitDx=0;exitDy=0;entryX=0.693;entryY=0.001;entryDx=0;entryDy=0;entryPerimeter=0;" edge="1" parent="1" source="8ZRl1OF-vCPLjR-fAQ_5-26" target="8ZRl1OF-vCPLjR-fAQ_5-10">
          <mxGeometry relative="1" as="geometry">
            <mxPoint x="648" y="568" as="targetPoint" />
          </mxGeometry>
        </mxCell>
        <mxCell id="8ZRl1OF-vCPLjR-fAQ_5-29" style="edgeStyle=orthogonalEdgeStyle;rounded=0;orthogonalLoop=1;jettySize=auto;html=1;exitX=0.5;exitY=0;exitDx=0;exitDy=0;entryX=0.233;entryY=0.994;entryDx=0;entryDy=0;entryPerimeter=0;" edge="1" parent="1">
          <mxGeometry relative="1" as="geometry">
            <mxPoint x="599.5" y="574" as="sourcePoint" />
            <mxPoint x="600.4699999999999" y="443.27999999999975" as="targetPoint" />
          </mxGeometry>
        </mxCell>
        <mxCell id="8ZRl1OF-vCPLjR-fAQ_5-31" value="&lt;b&gt;&lt;font style=&quot;font-size: 18px;&quot;&gt;Microsoft&lt;/font&gt;&lt;/b&gt;" style="text;html=1;align=center;verticalAlign=middle;resizable=0;points=[];autosize=1;strokeColor=none;fillColor=none;" vertex="1" parent="1">
          <mxGeometry x="505" y="250" width="100" height="40" as="geometry" />
        </mxCell>
        <mxCell id="8ZRl1OF-vCPLjR-fAQ_5-32" value="" style="endArrow=classic;html=1;rounded=0;exitX=0.414;exitY=1.002;exitDx=0;exitDy=0;exitPerimeter=0;entryX=0.25;entryY=0;entryDx=0;entryDy=0;" edge="1" parent="1" source="8ZRl1OF-vCPLjR-fAQ_5-10" target="8ZRl1OF-vCPLjR-fAQ_5-22">
          <mxGeometry width="50" height="50" relative="1" as="geometry">
            <mxPoint x="550" y="874" as="sourcePoint" />
            <mxPoint x="600" y="824" as="targetPoint" />
          </mxGeometry>
        </mxCell>
      </root>
    </mxGraphModel>
  </diagram>
</mxfile>
